<mxfile host="app.diagrams.net" modified="2023-05-01T00:52:38.316Z" agent="Mozilla/5.0 (Windows NT 10.0; Win64; x64) AppleWebKit/537.36 (KHTML, like Gecko) Chrome/112.0.0.0 Safari/537.36" etag="XRAxO1telL8yM4EiTBJd" version="21.2.3" type="device">
  <diagram name="PÃ¡gina-1" id="_ezRiAYHrVZed_1Geknk">
    <mxGraphModel dx="1500" dy="784" grid="1" gridSize="10" guides="1" tooltips="1" connect="1" arrows="1" fold="1" page="1" pageScale="1" pageWidth="827" pageHeight="1169" math="0" shadow="0">
      <root>
        <mxCell id="0" />
        <mxCell id="1" parent="0" />
        <mxCell id="6L0QTXzXXQpsZl_KeNn0-156" value="EMBARCACION" style="rounded=0;whiteSpace=wrap;html=1;" vertex="1" parent="1">
          <mxGeometry x="70" y="100" width="120" height="60" as="geometry" />
        </mxCell>
        <mxCell id="6L0QTXzXXQpsZl_KeNn0-157" value="Cap. de pasajeros" style="ellipse;whiteSpace=wrap;html=1;" vertex="1" parent="1">
          <mxGeometry x="60" y="30" width="60" height="50" as="geometry" />
        </mxCell>
        <mxCell id="6L0QTXzXXQpsZl_KeNn0-158" value="&lt;u&gt;Matricula&lt;/u&gt;" style="ellipse;whiteSpace=wrap;html=1;" vertex="1" parent="1">
          <mxGeometry x="140" y="30" width="50" height="50" as="geometry" />
        </mxCell>
        <mxCell id="6L0QTXzXXQpsZl_KeNn0-159" value="Nombre" style="ellipse;whiteSpace=wrap;html=1;" vertex="1" parent="1">
          <mxGeometry x="10" y="190" width="50" height="40" as="geometry" />
        </mxCell>
        <mxCell id="6L0QTXzXXQpsZl_KeNn0-160" value="CRUCERO" style="rounded=0;whiteSpace=wrap;html=1;" vertex="1" parent="1">
          <mxGeometry x="374" y="98" width="120" height="60" as="geometry" />
        </mxCell>
        <mxCell id="6L0QTXzXXQpsZl_KeNn0-161" value="" style="rhombus;whiteSpace=wrap;html=1;" vertex="1" parent="1">
          <mxGeometry x="250" y="110" width="40" height="40" as="geometry" />
        </mxCell>
        <mxCell id="6L0QTXzXXQpsZl_KeNn0-162" value="" style="endArrow=none;html=1;rounded=0;exitX=1;exitY=0.5;exitDx=0;exitDy=0;entryX=0;entryY=0.5;entryDx=0;entryDy=0;" edge="1" parent="1" source="6L0QTXzXXQpsZl_KeNn0-156" target="6L0QTXzXXQpsZl_KeNn0-161">
          <mxGeometry width="50" height="50" relative="1" as="geometry">
            <mxPoint x="450" y="330" as="sourcePoint" />
            <mxPoint x="500" y="280" as="targetPoint" />
          </mxGeometry>
        </mxCell>
        <mxCell id="6L0QTXzXXQpsZl_KeNn0-163" value="" style="endArrow=none;html=1;rounded=0;exitX=1;exitY=0.5;exitDx=0;exitDy=0;" edge="1" parent="1" source="6L0QTXzXXQpsZl_KeNn0-161" target="6L0QTXzXXQpsZl_KeNn0-160">
          <mxGeometry width="50" height="50" relative="1" as="geometry">
            <mxPoint x="450" y="330" as="sourcePoint" />
            <mxPoint x="500" y="280" as="targetPoint" />
          </mxGeometry>
        </mxCell>
        <mxCell id="6L0QTXzXXQpsZl_KeNn0-164" value="N" style="text;html=1;align=center;verticalAlign=middle;resizable=0;points=[];autosize=1;strokeColor=none;fillColor=none;" vertex="1" parent="1">
          <mxGeometry x="310" y="100" width="30" height="30" as="geometry" />
        </mxCell>
        <mxCell id="6L0QTXzXXQpsZl_KeNn0-165" value="1" style="text;html=1;align=center;verticalAlign=middle;resizable=0;points=[];autosize=1;strokeColor=none;fillColor=none;" vertex="1" parent="1">
          <mxGeometry x="185" y="100" width="30" height="30" as="geometry" />
        </mxCell>
        <mxCell id="6L0QTXzXXQpsZl_KeNn0-166" value="Nombre" style="ellipse;whiteSpace=wrap;html=1;" vertex="1" parent="1">
          <mxGeometry x="384" y="25" width="50" height="40" as="geometry" />
        </mxCell>
        <mxCell id="6L0QTXzXXQpsZl_KeNn0-167" value="Duracion" style="ellipse;whiteSpace=wrap;html=1;" vertex="1" parent="1">
          <mxGeometry x="520" y="30" width="50" height="50" as="geometry" />
        </mxCell>
        <mxCell id="6L0QTXzXXQpsZl_KeNn0-168" value="" style="endArrow=none;html=1;rounded=0;exitX=0.5;exitY=0;exitDx=0;exitDy=0;entryX=0.5;entryY=1;entryDx=0;entryDy=0;" edge="1" parent="1" source="6L0QTXzXXQpsZl_KeNn0-156" target="6L0QTXzXXQpsZl_KeNn0-157">
          <mxGeometry width="50" height="50" relative="1" as="geometry">
            <mxPoint x="450" y="200" as="sourcePoint" />
            <mxPoint x="500" y="150" as="targetPoint" />
          </mxGeometry>
        </mxCell>
        <mxCell id="6L0QTXzXXQpsZl_KeNn0-169" value="" style="endArrow=none;html=1;rounded=0;exitX=0.5;exitY=0;exitDx=0;exitDy=0;entryX=0.5;entryY=1;entryDx=0;entryDy=0;" edge="1" parent="1" source="6L0QTXzXXQpsZl_KeNn0-156" target="6L0QTXzXXQpsZl_KeNn0-158">
          <mxGeometry width="50" height="50" relative="1" as="geometry">
            <mxPoint x="450" y="200" as="sourcePoint" />
            <mxPoint x="500" y="150" as="targetPoint" />
          </mxGeometry>
        </mxCell>
        <mxCell id="6L0QTXzXXQpsZl_KeNn0-170" value="" style="endArrow=none;html=1;rounded=0;exitX=0.5;exitY=0;exitDx=0;exitDy=0;entryX=0;entryY=0.5;entryDx=0;entryDy=0;" edge="1" parent="1" source="6L0QTXzXXQpsZl_KeNn0-159" target="6L0QTXzXXQpsZl_KeNn0-156">
          <mxGeometry width="50" height="50" relative="1" as="geometry">
            <mxPoint x="450" y="200" as="sourcePoint" />
            <mxPoint x="500" y="150" as="targetPoint" />
          </mxGeometry>
        </mxCell>
        <mxCell id="6L0QTXzXXQpsZl_KeNn0-171" value="Asignada a" style="text;html=1;align=center;verticalAlign=middle;resizable=0;points=[];autosize=1;strokeColor=none;fillColor=none;" vertex="1" parent="1">
          <mxGeometry x="230" y="80" width="80" height="30" as="geometry" />
        </mxCell>
        <mxCell id="6L0QTXzXXQpsZl_KeNn0-172" value="" style="endArrow=none;html=1;rounded=0;exitX=0.5;exitY=1;exitDx=0;exitDy=0;entryX=0.5;entryY=0;entryDx=0;entryDy=0;" edge="1" parent="1" source="6L0QTXzXXQpsZl_KeNn0-166" target="6L0QTXzXXQpsZl_KeNn0-160">
          <mxGeometry width="50" height="50" relative="1" as="geometry">
            <mxPoint x="650" y="200" as="sourcePoint" />
            <mxPoint x="700" y="150" as="targetPoint" />
          </mxGeometry>
        </mxCell>
        <mxCell id="6L0QTXzXXQpsZl_KeNn0-173" value="" style="endArrow=none;html=1;rounded=0;entryX=0;entryY=0.5;entryDx=0;entryDy=0;exitX=1;exitY=0.5;exitDx=0;exitDy=0;" edge="1" parent="1" source="6L0QTXzXXQpsZl_KeNn0-160" target="6L0QTXzXXQpsZl_KeNn0-167">
          <mxGeometry width="50" height="50" relative="1" as="geometry">
            <mxPoint x="650" y="200" as="sourcePoint" />
            <mxPoint x="700" y="150" as="targetPoint" />
            <Array as="points" />
          </mxGeometry>
        </mxCell>
        <mxCell id="6L0QTXzXXQpsZl_KeNn0-174" value="Antiguedad" style="ellipse;whiteSpace=wrap;html=1;" vertex="1" parent="1">
          <mxGeometry x="5" y="98" width="60" height="50" as="geometry" />
        </mxCell>
        <mxCell id="6L0QTXzXXQpsZl_KeNn0-175" value="" style="endArrow=none;html=1;rounded=0;entryX=0.5;entryY=0;entryDx=0;entryDy=0;exitX=0.5;exitY=1;exitDx=0;exitDy=0;" edge="1" parent="1" source="6L0QTXzXXQpsZl_KeNn0-181" target="6L0QTXzXXQpsZl_KeNn0-176">
          <mxGeometry width="50" height="50" relative="1" as="geometry">
            <mxPoint x="600" y="250" as="sourcePoint" />
            <mxPoint x="600" y="310" as="targetPoint" />
          </mxGeometry>
        </mxCell>
        <mxCell id="6L0QTXzXXQpsZl_KeNn0-176" value="Puertos" style="rounded=0;whiteSpace=wrap;html=1;" vertex="1" parent="1">
          <mxGeometry x="550" y="195" width="120" height="60" as="geometry" />
        </mxCell>
        <mxCell id="6L0QTXzXXQpsZl_KeNn0-177" value="Nombre" style="ellipse;whiteSpace=wrap;html=1;" vertex="1" parent="1">
          <mxGeometry x="690" y="180" width="50" height="40" as="geometry" />
        </mxCell>
        <mxCell id="6L0QTXzXXQpsZl_KeNn0-178" value="" style="endArrow=none;html=1;rounded=0;exitX=0;exitY=0.5;exitDx=0;exitDy=0;" edge="1" parent="1" source="6L0QTXzXXQpsZl_KeNn0-177" target="6L0QTXzXXQpsZl_KeNn0-176">
          <mxGeometry width="50" height="50" relative="1" as="geometry">
            <mxPoint x="650" y="200" as="sourcePoint" />
            <mxPoint x="700" y="150" as="targetPoint" />
          </mxGeometry>
        </mxCell>
        <mxCell id="6L0QTXzXXQpsZl_KeNn0-179" value="&lt;u&gt;Id&lt;/u&gt;" style="ellipse;whiteSpace=wrap;html=1;" vertex="1" parent="1">
          <mxGeometry x="690" y="230" width="50" height="40" as="geometry" />
        </mxCell>
        <mxCell id="6L0QTXzXXQpsZl_KeNn0-180" value="" style="endArrow=none;html=1;rounded=0;exitX=1;exitY=0.5;exitDx=0;exitDy=0;entryX=0.06;entryY=0.695;entryDx=0;entryDy=0;entryPerimeter=0;" edge="1" parent="1" source="6L0QTXzXXQpsZl_KeNn0-176" target="6L0QTXzXXQpsZl_KeNn0-179">
          <mxGeometry width="50" height="50" relative="1" as="geometry">
            <mxPoint x="650" y="200" as="sourcePoint" />
            <mxPoint x="700" y="150" as="targetPoint" />
          </mxGeometry>
        </mxCell>
        <mxCell id="6L0QTXzXXQpsZl_KeNn0-181" value="" style="rhombus;whiteSpace=wrap;html=1;" vertex="1" parent="1">
          <mxGeometry x="590" y="108" width="40" height="40" as="geometry" />
        </mxCell>
        <mxCell id="6L0QTXzXXQpsZl_KeNn0-182" value="" style="endArrow=none;html=1;rounded=0;entryX=0;entryY=0.5;entryDx=0;entryDy=0;exitX=1;exitY=0.5;exitDx=0;exitDy=0;" edge="1" parent="1" source="6L0QTXzXXQpsZl_KeNn0-160" target="6L0QTXzXXQpsZl_KeNn0-181">
          <mxGeometry width="50" height="50" relative="1" as="geometry">
            <mxPoint x="650" y="200" as="sourcePoint" />
            <mxPoint x="700" y="150" as="targetPoint" />
          </mxGeometry>
        </mxCell>
        <mxCell id="6L0QTXzXXQpsZl_KeNn0-183" value="Realiza" style="text;html=1;align=center;verticalAlign=middle;resizable=0;points=[];autosize=1;strokeColor=none;fillColor=none;" vertex="1" parent="1">
          <mxGeometry x="399" y="575" width="60" height="30" as="geometry" />
        </mxCell>
        <mxCell id="6L0QTXzXXQpsZl_KeNn0-184" value="capacidad" style="ellipse;whiteSpace=wrap;html=1;" vertex="1" parent="1">
          <mxGeometry x="5" y="388" width="90" height="30" as="geometry" />
        </mxCell>
        <mxCell id="6L0QTXzXXQpsZl_KeNn0-185" value="" style="endArrow=none;html=1;rounded=0;entryX=1;entryY=0.5;entryDx=0;entryDy=0;exitX=0;exitY=0.5;exitDx=0;exitDy=0;" edge="1" parent="1" source="6L0QTXzXXQpsZl_KeNn0-192" target="6L0QTXzXXQpsZl_KeNn0-184">
          <mxGeometry width="50" height="50" relative="1" as="geometry">
            <mxPoint x="120" y="470" as="sourcePoint" />
            <mxPoint x="-50" y="520" as="targetPoint" />
          </mxGeometry>
        </mxCell>
        <mxCell id="6L0QTXzXXQpsZl_KeNn0-186" value="N" style="text;html=1;align=center;verticalAlign=middle;resizable=0;points=[];autosize=1;strokeColor=none;fillColor=none;" vertex="1" parent="1">
          <mxGeometry x="595" y="278" width="30" height="30" as="geometry" />
        </mxCell>
        <mxCell id="6L0QTXzXXQpsZl_KeNn0-187" value="" style="endArrow=none;html=1;rounded=0;exitX=1;exitY=0.5;exitDx=0;exitDy=0;entryX=0;entryY=0.5;entryDx=0;entryDy=0;" edge="1" parent="1" source="6L0QTXzXXQpsZl_KeNn0-174" target="6L0QTXzXXQpsZl_KeNn0-156">
          <mxGeometry width="50" height="50" relative="1" as="geometry">
            <mxPoint x="450" y="200" as="sourcePoint" />
            <mxPoint x="500" y="150" as="targetPoint" />
          </mxGeometry>
        </mxCell>
        <mxCell id="6L0QTXzXXQpsZl_KeNn0-188" value="" style="endArrow=none;html=1;rounded=0;entryX=0;entryY=0.5;entryDx=0;entryDy=0;" edge="1" parent="1" source="6L0QTXzXXQpsZl_KeNn0-192" target="6L0QTXzXXQpsZl_KeNn0-207">
          <mxGeometry width="50" height="50" relative="1" as="geometry">
            <mxPoint x="125" y="535.5" as="sourcePoint" />
            <mxPoint x="175" y="535.5" as="targetPoint" />
          </mxGeometry>
        </mxCell>
        <mxCell id="6L0QTXzXXQpsZl_KeNn0-189" value="CATEGORIA" style="rounded=0;whiteSpace=wrap;html=1;" vertex="1" parent="1">
          <mxGeometry x="300" y="290" width="120" height="60" as="geometry" />
        </mxCell>
        <mxCell id="6L0QTXzXXQpsZl_KeNn0-190" value="" style="endArrow=none;html=1;rounded=0;exitX=0;exitY=0.5;exitDx=0;exitDy=0;entryX=1;entryY=0.5;entryDx=0;entryDy=0;" edge="1" parent="1" source="6L0QTXzXXQpsZl_KeNn0-189" target="6L0QTXzXXQpsZl_KeNn0-207">
          <mxGeometry width="50" height="50" relative="1" as="geometry">
            <mxPoint x="265" y="466" as="sourcePoint" />
            <mxPoint x="-115" y="556" as="targetPoint" />
          </mxGeometry>
        </mxCell>
        <mxCell id="6L0QTXzXXQpsZl_KeNn0-191" value="RESERVA" style="rounded=0;whiteSpace=wrap;html=1;" vertex="1" parent="1">
          <mxGeometry x="300" y="440" width="120" height="60" as="geometry" />
        </mxCell>
        <mxCell id="6L0QTXzXXQpsZl_KeNn0-192" value="HABITACION" style="shape=ext;margin=3;double=1;whiteSpace=wrap;html=1;align=center;" vertex="1" parent="1">
          <mxGeometry x="75" y="290" width="110" height="60" as="geometry" />
        </mxCell>
        <mxCell id="6L0QTXzXXQpsZl_KeNn0-193" value="&lt;u&gt;numero&lt;/u&gt;" style="ellipse;whiteSpace=wrap;html=1;" vertex="1" parent="1">
          <mxGeometry x="25" y="448" width="50" height="40" as="geometry" />
        </mxCell>
        <mxCell id="6L0QTXzXXQpsZl_KeNn0-195" value="" style="rhombus;whiteSpace=wrap;html=1;" vertex="1" parent="1">
          <mxGeometry x="349" y="570" width="40" height="40" as="geometry" />
        </mxCell>
        <mxCell id="6L0QTXzXXQpsZl_KeNn0-196" value="CLIENTE" style="rounded=0;whiteSpace=wrap;html=1;" vertex="1" parent="1">
          <mxGeometry x="309" y="660" width="120" height="60" as="geometry" />
        </mxCell>
        <mxCell id="6L0QTXzXXQpsZl_KeNn0-197" value="" style="endArrow=none;html=1;rounded=0;exitX=0.5;exitY=1;exitDx=0;exitDy=0;" edge="1" parent="1">
          <mxGeometry relative="1" as="geometry">
            <mxPoint x="368.5" y="610" as="sourcePoint" />
            <mxPoint x="368.5" y="660" as="targetPoint" />
          </mxGeometry>
        </mxCell>
        <mxCell id="6L0QTXzXXQpsZl_KeNn0-198" value="Id" style="ellipse;whiteSpace=wrap;html=1;align=center;fontStyle=4;" vertex="1" parent="1">
          <mxGeometry x="459" y="670" width="60" height="30" as="geometry" />
        </mxCell>
        <mxCell id="6L0QTXzXXQpsZl_KeNn0-199" value="" style="endArrow=none;html=1;rounded=0;exitX=0;exitY=0.5;exitDx=0;exitDy=0;entryX=1;entryY=0.5;entryDx=0;entryDy=0;" edge="1" parent="1" source="6L0QTXzXXQpsZl_KeNn0-198" target="6L0QTXzXXQpsZl_KeNn0-196">
          <mxGeometry relative="1" as="geometry">
            <mxPoint x="449" y="530" as="sourcePoint" />
            <mxPoint x="609" y="530" as="targetPoint" />
          </mxGeometry>
        </mxCell>
        <mxCell id="6L0QTXzXXQpsZl_KeNn0-200" value="Nombre" style="ellipse;whiteSpace=wrap;html=1;" vertex="1" parent="1">
          <mxGeometry x="469" y="710" width="50" height="40" as="geometry" />
        </mxCell>
        <mxCell id="6L0QTXzXXQpsZl_KeNn0-201" value="" style="endArrow=none;html=1;rounded=0;exitX=1;exitY=0.5;exitDx=0;exitDy=0;entryX=0;entryY=0.5;entryDx=0;entryDy=0;" edge="1" parent="1" source="6L0QTXzXXQpsZl_KeNn0-196" target="6L0QTXzXXQpsZl_KeNn0-200">
          <mxGeometry relative="1" as="geometry">
            <mxPoint x="469" y="695" as="sourcePoint" />
            <mxPoint x="439" y="700" as="targetPoint" />
          </mxGeometry>
        </mxCell>
        <mxCell id="6L0QTXzXXQpsZl_KeNn0-202" value="N" style="text;html=1;align=center;verticalAlign=middle;resizable=0;points=[];autosize=1;strokeColor=none;fillColor=none;" vertex="1" parent="1">
          <mxGeometry x="369" y="630" width="30" height="30" as="geometry" />
        </mxCell>
        <mxCell id="6L0QTXzXXQpsZl_KeNn0-204" value="" style="endArrow=none;html=1;rounded=0;entryX=0;entryY=0.75;entryDx=0;entryDy=0;exitX=0.5;exitY=0;exitDx=0;exitDy=0;" edge="1" parent="1" source="6L0QTXzXXQpsZl_KeNn0-193" target="6L0QTXzXXQpsZl_KeNn0-192">
          <mxGeometry width="50" height="50" relative="1" as="geometry">
            <mxPoint x="85" y="330" as="sourcePoint" />
            <mxPoint y="335" as="targetPoint" />
          </mxGeometry>
        </mxCell>
        <mxCell id="6L0QTXzXXQpsZl_KeNn0-205" value="" style="endArrow=none;html=1;rounded=0;exitX=0.5;exitY=1;exitDx=0;exitDy=0;entryX=0.5;entryY=0;entryDx=0;entryDy=0;" edge="1" parent="1" target="6L0QTXzXXQpsZl_KeNn0-192">
          <mxGeometry width="50" height="50" relative="1" as="geometry">
            <mxPoint x="130" y="245" as="sourcePoint" />
            <mxPoint x="130" y="280" as="targetPoint" />
          </mxGeometry>
        </mxCell>
        <mxCell id="6L0QTXzXXQpsZl_KeNn0-206" value="" style="endArrow=none;html=1;rounded=0;exitX=0.5;exitY=0;exitDx=0;exitDy=0;entryX=0.5;entryY=1;entryDx=0;entryDy=0;" edge="1" parent="1" target="6L0QTXzXXQpsZl_KeNn0-156">
          <mxGeometry width="50" height="50" relative="1" as="geometry">
            <mxPoint x="130" y="205" as="sourcePoint" />
            <mxPoint x="140" y="300" as="targetPoint" />
          </mxGeometry>
        </mxCell>
        <mxCell id="6L0QTXzXXQpsZl_KeNn0-207" value="" style="rhombus;whiteSpace=wrap;html=1;" vertex="1" parent="1">
          <mxGeometry x="220" y="300" width="40" height="40" as="geometry" />
        </mxCell>
        <mxCell id="6L0QTXzXXQpsZl_KeNn0-208" value="N" style="text;html=1;align=center;verticalAlign=middle;resizable=0;points=[];autosize=1;strokeColor=none;fillColor=none;" vertex="1" parent="1">
          <mxGeometry x="185" y="318" width="30" height="30" as="geometry" />
        </mxCell>
        <mxCell id="6L0QTXzXXQpsZl_KeNn0-209" value="1" style="text;html=1;align=center;verticalAlign=middle;resizable=0;points=[];autosize=1;strokeColor=none;fillColor=none;" vertex="1" parent="1">
          <mxGeometry x="275" y="318" width="30" height="30" as="geometry" />
        </mxCell>
        <mxCell id="6L0QTXzXXQpsZl_KeNn0-210" value="" style="shape=rhombus;double=1;perimeter=rhombusPerimeter;whiteSpace=wrap;html=1;align=center;" vertex="1" parent="1">
          <mxGeometry x="95" y="205" width="70" height="50" as="geometry" />
        </mxCell>
        <mxCell id="6L0QTXzXXQpsZl_KeNn0-211" value="Tiene" style="text;html=1;align=center;verticalAlign=middle;resizable=0;points=[];autosize=1;strokeColor=none;fillColor=none;" vertex="1" parent="1">
          <mxGeometry x="175" y="215" width="50" height="30" as="geometry" />
        </mxCell>
        <mxCell id="6L0QTXzXXQpsZl_KeNn0-212" value="" style="endArrow=none;html=1;rounded=0;entryX=0.5;entryY=0;entryDx=0;entryDy=0;" edge="1" parent="1" target="6L0QTXzXXQpsZl_KeNn0-195">
          <mxGeometry relative="1" as="geometry">
            <mxPoint x="370" y="500" as="sourcePoint" />
            <mxPoint x="370" y="560" as="targetPoint" />
          </mxGeometry>
        </mxCell>
        <mxCell id="6L0QTXzXXQpsZl_KeNn0-215" value="N" style="text;html=1;align=center;verticalAlign=middle;resizable=0;points=[];autosize=1;strokeColor=none;fillColor=none;" vertex="1" parent="1">
          <mxGeometry x="345" y="508" width="30" height="30" as="geometry" />
        </mxCell>
        <mxCell id="6L0QTXzXXQpsZl_KeNn0-216" value="" style="endArrow=none;html=1;rounded=0;" edge="1" parent="1">
          <mxGeometry relative="1" as="geometry">
            <mxPoint x="480" y="470" as="sourcePoint" />
            <mxPoint x="420" y="470" as="targetPoint" />
          </mxGeometry>
        </mxCell>
        <mxCell id="6L0QTXzXXQpsZl_KeNn0-217" value="" style="rhombus;whiteSpace=wrap;html=1;" vertex="1" parent="1">
          <mxGeometry x="110" y="450" width="40" height="40" as="geometry" />
        </mxCell>
        <mxCell id="6L0QTXzXXQpsZl_KeNn0-218" value="" style="endArrow=none;html=1;rounded=0;exitX=0.5;exitY=0;exitDx=0;exitDy=0;entryX=0.5;entryY=1;entryDx=0;entryDy=0;" edge="1" parent="1" source="6L0QTXzXXQpsZl_KeNn0-217" target="6L0QTXzXXQpsZl_KeNn0-192">
          <mxGeometry relative="1" as="geometry">
            <mxPoint x="580" y="340" as="sourcePoint" />
            <mxPoint x="740" y="340" as="targetPoint" />
          </mxGeometry>
        </mxCell>
        <mxCell id="6L0QTXzXXQpsZl_KeNn0-219" value="" style="endArrow=none;html=1;rounded=0;exitX=0.854;exitY=1.005;exitDx=0;exitDy=0;exitPerimeter=0;" edge="1" parent="1" source="6L0QTXzXXQpsZl_KeNn0-160">
          <mxGeometry relative="1" as="geometry">
            <mxPoint x="580" y="480" as="sourcePoint" />
            <mxPoint x="480" y="380" as="targetPoint" />
          </mxGeometry>
        </mxCell>
        <mxCell id="6L0QTXzXXQpsZl_KeNn0-220" value="" style="rhombus;whiteSpace=wrap;html=1;" vertex="1" parent="1">
          <mxGeometry x="459" y="380" width="40" height="40" as="geometry" />
        </mxCell>
        <mxCell id="6L0QTXzXXQpsZl_KeNn0-221" value="" style="endArrow=none;html=1;rounded=0;exitX=0.5;exitY=1;exitDx=0;exitDy=0;" edge="1" parent="1" source="6L0QTXzXXQpsZl_KeNn0-220">
          <mxGeometry relative="1" as="geometry">
            <mxPoint x="580" y="480" as="sourcePoint" />
            <mxPoint x="480" y="470" as="targetPoint" />
          </mxGeometry>
        </mxCell>
        <mxCell id="6L0QTXzXXQpsZl_KeNn0-222" value="" style="endArrow=none;html=1;rounded=0;exitX=1;exitY=0.5;exitDx=0;exitDy=0;entryX=0;entryY=0.5;entryDx=0;entryDy=0;" edge="1" parent="1" source="6L0QTXzXXQpsZl_KeNn0-217" target="6L0QTXzXXQpsZl_KeNn0-191">
          <mxGeometry relative="1" as="geometry">
            <mxPoint x="580" y="480" as="sourcePoint" />
            <mxPoint x="290" y="470" as="targetPoint" />
          </mxGeometry>
        </mxCell>
        <mxCell id="6L0QTXzXXQpsZl_KeNn0-224" value="" style="endArrow=none;html=1;rounded=0;entryX=0;entryY=0.5;entryDx=0;entryDy=0;" edge="1" parent="1" target="6L0QTXzXXQpsZl_KeNn0-225">
          <mxGeometry relative="1" as="geometry">
            <mxPoint x="420" y="490" as="sourcePoint" />
            <mxPoint x="520" y="485" as="targetPoint" />
          </mxGeometry>
        </mxCell>
        <mxCell id="6L0QTXzXXQpsZl_KeNn0-225" value="Relationship" style="shape=rhombus;perimeter=rhombusPerimeter;whiteSpace=wrap;html=1;align=center;" vertex="1" parent="1">
          <mxGeometry x="520" y="460" width="120" height="60" as="geometry" />
        </mxCell>
        <mxCell id="6L0QTXzXXQpsZl_KeNn0-226" value="" style="endArrow=none;html=1;rounded=0;exitX=1;exitY=0.5;exitDx=0;exitDy=0;" edge="1" parent="1" source="6L0QTXzXXQpsZl_KeNn0-225">
          <mxGeometry relative="1" as="geometry">
            <mxPoint x="580" y="480" as="sourcePoint" />
            <mxPoint x="700" y="490" as="targetPoint" />
          </mxGeometry>
        </mxCell>
        <mxCell id="6L0QTXzXXQpsZl_KeNn0-227" value="AGENTE" style="rounded=0;whiteSpace=wrap;html=1;" vertex="1" parent="1">
          <mxGeometry x="700" y="460" width="120" height="60" as="geometry" />
        </mxCell>
        <mxCell id="6L0QTXzXXQpsZl_KeNn0-228" value="1" style="text;html=1;align=center;verticalAlign=middle;resizable=0;points=[];autosize=1;strokeColor=none;fillColor=none;" vertex="1" parent="1">
          <mxGeometry x="665" y="488" width="30" height="30" as="geometry" />
        </mxCell>
        <mxCell id="6L0QTXzXXQpsZl_KeNn0-229" value="N" style="text;html=1;align=center;verticalAlign=middle;resizable=0;points=[];autosize=1;strokeColor=none;fillColor=none;" vertex="1" parent="1">
          <mxGeometry x="415" y="488" width="30" height="30" as="geometry" />
        </mxCell>
      </root>
    </mxGraphModel>
  </diagram>
</mxfile>
